<svg width="56" height="56" viewBox="0 0 56 56" fill="none" xmlns="http://www.w3.org/2000/svg">
<rect x="1" y="1" width="54" height="54" rx="9" stroke="#F18400" stroke-width="2"/>
<path d="M28.0926 21.463H20.3483V24.5281H28.0926V21.463ZM28.2493 19.9931C28.6047 19.9931 28.9078 20.1286 29.1586 20.3997C29.4303 20.6499 29.5662 20.9626 29.5662 21.3379V24.6532C29.5662 25.0285 29.4303 25.3517 29.1586 25.6227C28.9078 25.8729 28.6047 25.998 28.2493 25.998H20.2229C19.8467 25.998 19.5227 25.8729 19.251 25.6227C19.0002 25.3517 18.8748 25.0285 18.8748 24.6532V21.3379C18.8748 20.9626 19.0002 20.6499 19.251 20.3997C19.5227 20.1286 19.8467 19.9931 20.2229 19.9931H28.2493ZM31.1025 16.803H17.3071V39.1964H31.1025V16.803ZM32.5447 40.6663H15.8335V16.6466C15.8335 16.2921 15.9589 15.9898 16.2097 15.7396C16.4815 15.4685 16.795 15.333 17.1503 15.333H31.1965C31.5728 15.333 31.8863 15.4685 32.1371 15.7396C32.4089 15.9898 32.5447 16.2921 32.5447 16.6466V30.1264H33.8929C34.3527 30.1473 34.7499 30.3245 35.0843 30.6581C35.4397 30.9709 35.6278 31.367 35.6487 31.8466V33.5042C35.6487 34.4216 35.8263 35.0367 36.1817 35.3495C36.537 35.6414 37.1014 35.7873 37.8748 35.7873H38.2196C38.7422 35.7665 39.108 35.6518 39.317 35.4433C39.526 35.2139 39.6514 34.7761 39.6932 34.1297V23.1519C39.6932 22.5473 39.5783 22.1198 39.3483 21.8696C39.1393 21.5986 38.784 21.4526 38.2823 21.4318H38.1569V19.9305C39.0975 19.9305 39.8291 20.2016 40.3516 20.7437C40.8742 21.265 41.1459 22.0052 41.1668 22.9643V33.5042C41.1668 34.9637 40.8847 35.9541 40.3203 36.4754C39.7768 36.9967 38.9617 37.2573 37.8748 37.2573C36.7878 37.2573 35.8995 36.9967 35.2097 36.4754C34.5409 35.9541 34.196 35.0367 34.1751 33.7231V31.9404C34.1751 31.857 34.1437 31.7945 34.081 31.7528C34.0392 31.6902 33.987 31.6485 33.9243 31.6277H32.5447V40.6663Z" fill="#F18400"/>
<path d="M21.6411 34.3C22.1136 32.1538 24.6723 28 24.6723 28C24.6723 28 26.8379 32.1538 27.3104 34.2308C27.7828 36.3077 27.5346 37 24.6723 37C21.8101 37 21.1687 36.4462 21.6411 34.3Z" stroke="#F18400" stroke-width="1.5" stroke-linecap="round"/>
</svg>
