<svg width="57" height="56" viewBox="0 0 57 56" fill="none" xmlns="http://www.w3.org/2000/svg">
<rect x="1.5" y="1" width="54" height="54" rx="9" stroke="#DBDBDB" stroke-width="2"/>
<path d="M28.5926 21.463H20.8483V24.5281H28.5926V21.463ZM28.7493 19.9931C29.1047 19.9931 29.4078 20.1286 29.6586 20.3997C29.9303 20.6499 30.0662 20.9626 30.0662 21.3379V24.6532C30.0662 25.0285 29.9303 25.3517 29.6586 25.6227C29.4078 25.8729 29.1047 25.998 28.7493 25.998H20.7229C20.3467 25.998 20.0227 25.8729 19.751 25.6227C19.5002 25.3517 19.3748 25.0285 19.3748 24.6532V21.3379C19.3748 20.9626 19.5002 20.6499 19.751 20.3997C20.0227 20.1286 20.3467 19.9931 20.7229 19.9931H28.7493ZM31.6025 16.803H17.8071V39.1964H31.6025V16.803ZM33.0447 40.6663H16.3335V16.6466C16.3335 16.2921 16.4589 15.9898 16.7097 15.7396C16.9815 15.4685 17.295 15.333 17.6503 15.333H31.6965C32.0728 15.333 32.3863 15.4685 32.6371 15.7396C32.9089 15.9898 33.0447 16.2921 33.0447 16.6466V30.1264H34.3929C34.8527 30.1473 35.2499 30.3245 35.5843 30.6581C35.9397 30.9709 36.1278 31.367 36.1487 31.8466V33.5042C36.1487 34.4216 36.3263 35.0367 36.6817 35.3495C37.037 35.6414 37.6014 35.7873 38.3748 35.7873H38.7196C39.2422 35.7665 39.608 35.6518 39.817 35.4433C40.026 35.2139 40.1514 34.7761 40.1932 34.1297V23.1519C40.1932 22.5473 40.0783 22.1198 39.8483 21.8696C39.6393 21.5986 39.284 21.4526 38.7823 21.4318H38.6569V19.9305C39.5975 19.9305 40.3291 20.2016 40.8516 20.7437C41.3742 21.265 41.6459 22.0052 41.6668 22.9643V33.5042C41.6668 34.9637 41.3847 35.9541 40.8203 36.4754C40.2768 36.9967 39.4617 37.2573 38.3748 37.2573C37.2878 37.2573 36.3995 36.9967 35.7097 36.4754C35.0409 35.9541 34.696 35.0367 34.6751 33.7231V31.9404C34.6751 31.857 34.6437 31.7945 34.581 31.7528C34.5392 31.6902 34.487 31.6485 34.4243 31.6277H33.0447V40.6663Z" fill="#989898"/>
<path d="M22.1411 34.3C22.6136 32.1538 25.1723 28 25.1723 28C25.1723 28 27.3379 32.1538 27.8104 34.2308C28.2828 36.3077 28.0346 37 25.1723 37C22.3101 37 21.6687 36.4462 22.1411 34.3Z" stroke="#989898" stroke-width="1.5" stroke-linecap="round"/>
</svg>
